# Blender v2.73 (sub 0) OBJ File: 'Camp.blend'
# www.blender.org
o Cube_Cube.105
v 219.526749 -3.661238 231.657883
v 219.526749 -3.661238 225.778015
v 235.134201 -3.661238 225.778015
v 235.134201 -3.661238 231.657883
v 219.526749 -3.083558 231.657883
v 219.526749 -3.083558 225.778015
v 235.134201 -3.083558 225.778015
v 235.134201 -3.083558 231.657883
vt 0.957186 0.753470
vt 0.957186 0.376735
vt 1.000000 0.376735
vt 1.000000 0.753470
vt 0.871558 1.000000
vt 0.871557 0.000000
vt 0.914371 0.000000
vt 0.914372 1.000000
vt 0.957186 0.000000
vt 1.000000 0.000000
vt 0.957186 1.000000
vt 0.435779 1.000000
vt 0.000000 1.000000
vt 0.000000 0.000000
vt 0.435778 0.000000
vn -1.000000 0.000000 0.000000
vn 0.000000 0.000000 -1.000000
vn 1.000000 0.000000 0.000000
vn 0.000000 0.000000 1.000000
vn 0.000000 -1.000000 0.000000
vn 0.000000 1.000000 0.000000
s off
f 5/1/1 6/2/1 2/3/1 1/4/1
f 6/5/2 7/6/2 3/7/2 2/8/2
f 7/2/3 8/9/3 4/10/3 3/3/3
f 8/9/4 5/11/4 1/8/4 4/7/4
f 1/12/5 2/13/5 3/14/5 4/15/5
f 8/15/6 7/6/6 6/5/6 5/12/6
o CellWall1_Cube.010
v 246.389084 -9.143294 232.712891
v 246.389084 -9.143294 166.700287
v 251.107437 -9.143294 166.700287
v 251.107437 -9.143294 232.712891
v 246.389084 14.970145 232.712891
v 246.389084 14.970145 166.700287
v 251.107437 14.970145 166.700287
v 251.107437 14.970145 232.712891
vt 0.386545 1.000000
vt 0.386545 0.000000
vt 0.773090 0.000000
vt 0.773090 1.000000
vt 0.924363 0.365285
vt 1.000000 0.365285
vt 1.000000 0.730571
vt 0.924363 0.730571
vt 0.000000 1.000000
vt 0.000000 0.000000
vt 0.924363 0.000000
vt 1.000000 0.000000
vt 0.848727 1.000000
vt 0.848727 0.000000
vt 0.924363 1.000000
vn -1.000000 0.000000 0.000000
vn 0.000000 0.000000 -1.000000
vn 1.000000 0.000000 0.000000
vn 0.000000 0.000000 1.000000
vn 0.000000 -1.000000 0.000000
vn 0.000000 1.000000 0.000000
s off
f 13/16/7 14/17/7 10/18/7 9/19/7
f 14/20/8 15/21/8 11/22/8 10/23/8
f 15/24/9 16/25/9 12/17/9 11/16/9
f 16/26/10 13/27/10 9/21/10 12/20/10
f 9/28/11 10/29/11 11/26/11 12/30/11
f 16/19/12 15/18/12 14/29/12 13/28/12
o FloatingFloor_Cube.011
v 249.818573 -9.143294 231.801758
v 189.740234 -9.143294 231.115631
v 189.789276 -9.143294 226.397522
v 249.867615 -9.143294 227.083649
v 249.818573 14.970145 231.801758
v 189.740234 14.970145 231.115631
v 189.789276 14.970145 226.397522
v 249.867615 14.970145 227.083649
v 249.818573 2.913425 231.801758
v 219.779404 14.970145 231.458694
v 189.740234 2.913425 231.115631
v 219.779404 -9.143294 231.458694
v 189.764740 14.970145 228.756577
v 189.789276 2.913425 226.397522
v 189.764740 -9.143294 228.756577
v 219.828445 14.970145 226.740585
v 249.867615 2.913425 227.083649
v 219.828445 -9.143294 226.740585
v 249.843094 14.970145 229.442703
v 249.843094 -9.143294 229.442703
v 219.803925 14.970145 229.099640
v 219.803925 -9.143294 229.099640
v 249.843094 2.913425 229.442703
v 219.828445 2.913425 226.740585
v 189.764740 2.913425 228.756577
v 219.779404 2.913425 231.458694
v 249.818573 8.941786 231.801758
v 204.759811 14.970145 231.287155
v 189.740234 -3.114934 231.115631
v 234.798981 -9.143294 231.630219
v 189.777008 14.970145 227.577042
v 189.789276 -3.114934 226.397522
v 189.752487 -9.143294 229.936096
v 234.848022 14.970145 226.912125
v 249.867615 -3.114934 227.083649
v 204.808853 -9.143294 226.569046
v 249.830841 14.970145 230.622238
v 249.855347 -9.143294 228.263184
v 249.818573 -3.114934 231.801758
v 234.798981 14.970145 231.630219
v 189.740234 8.941786 231.115631
v 204.759811 -9.143294 231.287155
v 189.752487 14.970145 229.936096
v 189.789276 8.941786 226.397522
v 189.777008 -9.143294 227.577042
v 204.808853 14.970145 226.569046
v 249.867615 8.941786 227.083649
v 234.848022 -9.143294 226.912125
v 249.855347 14.970145 228.263184
v 249.830841 -9.143294 230.622238
v 219.791656 14.970145 230.279160
v 219.816177 14.970145 227.920105
v 234.823502 14.970145 229.271179
v 204.784332 14.970145 228.928101
v 219.816177 -9.143294 227.920105
v 219.791656 -9.143294 230.279160
v 234.823502 -9.143294 229.271179
v 204.784332 -9.143294 228.928101
v 249.843094 -3.114934 229.442703
v 249.843094 8.941786 229.442703
v 249.855347 2.913425 228.263184
v 249.830841 2.913425 230.622238
v 219.828445 -3.114934 226.740585
v 219.828445 8.941786 226.740585
v 204.808853 2.913425 226.569046
v 234.848022 2.913425 226.912125
v 189.764740 -3.114934 228.756577
v 189.764740 8.941786 228.756577
v 189.752487 2.913425 229.936096
v 189.777008 2.913425 227.577042
v 219.779404 -3.114934 231.458694
v 219.779404 8.941786 231.458694
v 234.798981 2.913425 231.630219
v 204.759811 2.913425 231.287155
v 204.759811 8.941786 231.287155
v 234.798981 8.941786 231.630219
v 234.798981 -3.114934 231.630219
v 189.777008 8.941786 227.577042
v 189.752487 8.941786 229.936096
v 189.752487 -3.114934 229.936096
v 234.848022 8.941786 226.912125
v 204.808853 8.941786 226.569046
v 204.808853 -3.114934 226.569046
v 249.830841 8.941786 230.622238
v 249.855347 8.941786 228.263184
v 249.855347 -3.114934 228.263184
v 204.772079 -9.143294 230.107635
v 234.811249 -9.143294 230.450699
v 234.835770 -9.143294 228.091644
v 204.796600 14.970145 227.748581
v 234.835770 14.970145 228.091644
v 234.811249 14.970145 230.450699
v 204.772079 14.970145 230.107635
v 204.796600 -9.143294 227.748581
v 249.830841 -3.114934 230.622238
v 234.848022 -3.114934 226.912125
v 189.777008 -3.114934 227.577042
v 204.759811 -3.114934 231.287155
vt 0.676454 0.249980
vt 0.676454 0.000000
vt 0.773090 0.000000
vt 0.773090 0.249980
vt 0.943272 0.501635
vt 0.924363 0.501635
vt 0.924363 0.401308
vt 0.943272 0.401308
vt 0.289909 0.249980
vt 0.289909 0.000000
vt 0.386545 0.000000
vt 0.386545 0.249980
vt 0.981091 0.300981
vt 1.000000 0.300981
vt 1.000000 0.401308
vt 0.981091 0.401308
vt 0.829818 0.250000
vt 0.829818 0.000020
vt 0.848727 0.000000
vt 0.848727 0.249980
vt 0.905454 0.250040
vt 0.905454 0.000060
vt 0.924363 0.000081
vt 0.924363 0.250060
vt 0.905454 0.750000
vt 0.905454 0.500020
vt 0.924363 0.500040
vt 0.924363 0.750020
vt 0.867636 0.749960
vt 0.867636 0.499980
vt 0.886545 0.500000
vt 0.886545 0.749980
vt 0.867636 0.250000
vt 0.867636 0.000020
vt 0.886545 0.000040
vt 0.886545 0.250020
vt 0.829817 0.749960
vt 0.829817 0.499980
vt 0.848727 0.499960
vt 0.848727 0.749940
vt 0.791999 0.750000
vt 0.791999 0.500020
vt 0.810908 0.500000
vt 0.810908 0.749980
vt 0.791999 0.250040
vt 0.791999 0.000060
vt 0.810909 0.000040
vt 0.810908 0.250020
vt 0.943273 0.300981
vt 0.962182 0.300981
vt 0.962182 0.401308
vt 0.943272 0.100327
vt 0.962182 0.100327
vt 0.962182 0.200654
vt 0.943273 0.200654
vt 0.981091 0.100327
vt 1.000000 0.100327
vt 1.000000 0.200654
vt 0.981091 0.200654
vt 0.289909 0.749940
vt 0.289909 0.499960
vt 0.386545 0.499960
vt 0.386545 0.749940
vt 0.096636 0.749940
vt 0.096636 0.499960
vt 0.193272 0.499960
vt 0.193273 0.749940
vt 0.096636 0.249980
vt 0.096636 0.000000
vt 0.193272 0.000000
vt 0.193272 0.249980
vt 0.981091 0.501635
vt 0.962182 0.501635
vt 0.981091 0.702289
vt 0.962182 0.702289
vt 0.962182 0.601962
vt 0.981091 0.601962
vt 0.943273 0.702289
vt 0.924363 0.702289
vt 0.924363 0.601962
vt 0.943272 0.601962
vt 0.676454 0.749940
vt 0.676454 0.499960
vt 0.773090 0.499960
vt 0.773090 0.749940
vt 0.483181 0.249980
vt 0.483181 0.000000
vt 0.579817 0.000000
vt 0.579817 0.249980
vt 0.483181 0.499960
vt 0.579817 0.499960
vt 0.483181 0.999919
vt 0.483181 0.749940
vt 0.579817 0.749940
vt 0.579817 0.999919
vt 0.386545 0.999919
vt 0.676454 0.999919
vt 0.773090 0.999919
vt 0.962182 0.802616
vt 0.943273 0.802616
vt 0.924363 0.802616
vt 1.000000 0.702289
vt 1.000000 0.601962
vt 1.000000 0.802616
vt 0.981091 0.802616
vt 1.000000 0.501635
vt 0.000000 0.499960
vt 0.000000 0.249980
vt 0.000000 0.000000
vt 0.096636 0.999920
vt 0.193273 0.999920
vt 0.000000 0.999920
vt 0.000000 0.749940
vt 0.289909 0.999920
vt 0.962182 0.000000
vt 0.981091 0.000000
vt 1.000000 0.000000
vt 0.924363 0.100327
vt 0.924363 0.200654
vt 0.924363 0.000000
vt 0.943272 0.000000
vt 0.924363 0.300981
vt 0.773090 0.250060
vt 0.773090 0.000081
vt 0.791999 0.999980
vt 0.810908 0.999960
vt 0.773090 1.000000
vt 0.773090 0.750020
vt 0.829817 0.999940
vt 0.848727 0.999919
vt 0.867636 0.999940
vt 0.886545 0.999960
vt 0.905454 0.999980
vt 0.924363 1.000000
vn -0.011400 0.000000 0.999900
vn -0.999900 0.000000 -0.010400
vn 0.011400 0.000000 -0.999900
vn 0.999900 0.000000 0.010400
vn 0.000000 -1.000000 0.000000
vn 0.000000 1.000000 0.000000
s off
f 114/31/13 45/32/13 18/33/13 58/34/13
f 113/35/14 48/36/14 19/37/14 61/38/14
f 112/39/15 51/40/15 20/41/15 64/42/15
f 111/43/16 55/44/16 17/45/16 66/46/16
f 110/47/17 61/48/17 19/49/17 52/50/17
f 109/51/18 59/52/18 22/53/18 44/54/18
f 108/55/18 67/56/18 26/57/18 56/58/18
f 107/59/18 68/60/18 37/61/18 69/62/18
f 106/63/18 47/64/18 29/65/18 70/66/18
f 105/67/17 71/68/17 34/69/17 64/70/17
f 104/71/17 72/72/17 38/73/17 73/74/17
f 103/75/17 49/76/17 31/77/17 74/78/17
f 102/79/16 75/80/16 36/81/16 54/38/16
f 101/82/16 76/83/16 39/84/16 77/85/16
f 100/86/16 43/87/16 25/88/16 78/89/16
f 99/90/15 79/91/15 34/92/15 52/93/15
f 98/94/15 80/95/15 40/96/15 81/97/15
f 97/98/15 63/99/15 33/100/15 82/101/15
f 96/102/14 83/103/14 31/81/14 49/46/14
f 95/104/14 84/105/14 41/106/14 85/107/14
f 94/108/14 60/109/14 30/110/14 86/111/14
f 93/112/13 87/113/13 28/114/13 46/115/13
f 91/116/13 57/117/13 27/118/13 90/119/13
f 88/120/13 91/116/13 90/119/13 42/121/13
f 26/92/13 44/42/13 91/116/13 88/120/13
f 44/42/13 22/41/13 57/117/13 91/116/13
f 43/122/13 92/123/13 89/124/13 25/125/13
f 21/126/13 56/93/13 92/123/13 43/122/13
f 56/93/13 26/92/13 88/120/13 92/123/13
f 55/127/13 93/112/13 46/115/13 17/128/13
f 25/125/13 89/124/13 93/112/13 55/127/13
f 84/105/14 94/108/14 86/111/14 41/106/14
f 29/129/14 47/130/14 94/108/14 84/105/14
f 47/130/14 23/131/14 60/109/14 94/108/14
f 57/132/14 95/104/14 85/107/14 27/133/14
f 22/134/14 59/135/14 95/104/14 57/132/14
f 59/135/14 29/129/14 84/105/14 95/104/14
f 45/136/14 96/102/14 49/46/14 18/45/14
f 27/133/14 85/107/14 96/102/14 45/136/14
f 85/107/14 41/106/14 83/103/14 96/102/14
f 32/137/15 50/138/15 97/98/15 80/95/15
f 50/138/15 24/139/15 63/99/15 97/98/15
f 60/140/15 98/94/15 81/97/15 30/141/15
f 23/142/15 62/143/15 98/94/15 60/140/15
f 62/143/15 32/137/15 80/95/15 98/94/15
f 48/144/15 99/90/15 52/93/15 19/126/15
f 30/141/15 81/97/15 99/90/15 48/144/15
f 81/97/15 40/96/15 79/91/15 99/90/15
f 76/83/16 100/86/16 78/89/16 39/84/16
f 35/145/16 53/146/16 100/86/16 76/83/16
f 53/146/16 21/147/16 43/87/16 100/86/16
f 63/148/16 101/82/16 77/85/16 33/149/16
f 24/150/16 65/151/16 101/82/16 63/148/16
f 65/151/16 35/145/16 76/83/16 101/82/16
f 51/152/16 102/79/16 54/38/16 20/37/16
f 33/149/16 77/85/16 102/79/16 51/152/16
f 77/85/16 39/84/16 75/80/16 102/79/16
f 72/72/17 103/75/17 74/78/17 38/73/17
f 28/114/17 58/153/17 103/75/17 72/72/17
f 58/153/17 18/154/17 49/76/17 103/75/17
f 66/155/17 104/71/17 73/74/17 36/156/17
f 17/157/17 46/158/17 104/71/17 66/155/17
f 46/158/17 28/114/17 72/72/17 104/71/17
f 54/159/17 105/67/17 64/70/17 20/160/17
f 36/156/17 73/74/17 105/67/17 54/159/17
f 73/74/17 38/73/17 71/68/17 105/67/17
f 68/60/18 106/63/18 70/66/18 37/61/18
f 32/69/18 62/50/18 106/63/18 68/60/18
f 62/50/18 23/49/18 47/64/18 106/63/18
f 65/161/18 107/59/18 69/62/18 35/162/18
f 24/160/18 50/70/18 107/59/18 65/161/18
f 50/70/18 32/69/18 68/60/18 107/59/18
f 53/163/18 108/55/18 56/58/18 21/164/18
f 35/162/18 69/62/18 108/55/18 53/163/18
f 69/62/18 37/61/18 67/56/18 108/55/18
f 67/56/18 109/51/18 44/54/18 26/57/18
f 37/61/18 70/66/18 109/51/18 67/56/18
f 70/66/18 29/65/18 59/52/18 109/51/18
f 71/68/17 110/47/17 52/50/17 34/69/17
f 38/73/17 74/78/17 110/47/17 71/68/17
f 74/78/17 31/77/17 61/48/17 110/47/17
f 75/80/16 111/43/16 66/46/16 36/81/16
f 39/84/16 78/89/16 111/43/16 75/80/16
f 78/89/16 25/88/16 55/44/16 111/43/16
f 79/91/15 112/39/15 64/42/15 34/92/15
f 82/101/15 33/100/15 51/40/15 112/39/15
f 83/103/14 113/35/14 61/38/14 31/81/14
f 41/106/14 86/111/14 113/35/14 83/103/14
f 86/111/14 30/110/14 48/36/14 113/35/14
f 87/113/13 114/31/13 58/34/13 28/114/13
f 42/121/13 90/119/13 114/31/13 87/113/13
f 90/119/13 27/118/13 45/32/13 114/31/13
o CellWall4_Cube.012
v 250.694366 -9.143294 170.970703
v 208.937241 -9.143294 170.284576
v 208.986282 -9.143294 165.566467
v 250.743408 -9.143294 166.252594
v 250.694366 14.970145 170.970703
v 208.937241 14.970145 170.284576
v 208.986282 14.970145 165.566467
v 250.743408 14.970145 166.252594
vt 0.000000 0.865964
vt 0.000000 0.000000
vt 0.386546 0.000000
vt 0.386546 0.865964
vt 0.924363 0.500000
vt 1.000000 0.500000
vt 1.000000 1.000000
vt 0.924363 1.000000
vt 0.773092 0.000000
vt 0.773092 0.865964
vt 0.924363 0.000000
vt 1.000000 0.000000
vt 0.773092 0.866555
vt 0.773092 0.000591
vt 0.848728 0.000000
vt 0.848728 0.865964
vt 0.924363 0.000591
vt 0.924363 0.866555
vn -0.016400 0.000000 0.999900
vn -0.999900 0.000000 -0.010400
vn 0.016400 0.000000 -0.999900
vn 0.999900 0.000000 0.010400
vn 0.000000 -1.000000 0.000000
vn 0.000000 1.000000 0.000000
s off
f 119/165/19 120/166/19 116/167/19 115/168/19
f 120/169/20 121/170/20 117/171/20 116/172/20
f 121/168/21 122/167/21 118/173/21 117/174/21
f 122/175/22 119/176/22 115/170/22 118/169/22
f 115/177/23 116/178/23 117/179/23 118/180/23
f 122/181/24 121/182/24 120/180/24 119/179/24
o CellWall3_Cube.013
v 185.939194 -9.143294 229.853333
v 185.939194 -9.143294 163.840729
v 190.657547 -9.143294 163.840729
v 190.657547 -9.143294 229.853333
v 185.939194 14.970145 229.853333
v 185.939194 14.970145 163.840729
v 190.657547 14.970145 163.840729
v 190.657547 14.970145 229.853333
vt 0.386545 1.000000
vt 0.386545 0.000000
vt 0.773090 0.000000
vt 0.773090 1.000000
vt 0.924363 0.365285
vt 1.000000 0.365285
vt 1.000000 0.730571
vt 0.924363 0.730571
vt 0.000000 1.000000
vt 0.000000 0.000000
vt 0.924363 0.000000
vt 1.000000 0.000000
vt 0.848727 1.000000
vt 0.848727 0.000000
vt 0.924363 1.000000
vn -1.000000 0.000000 0.000000
vn 0.000000 0.000000 -1.000000
vn 1.000000 0.000000 0.000000
vn 0.000000 0.000000 1.000000
vn 0.000000 -1.000000 0.000000
vn 0.000000 1.000000 0.000000
s off
f 127/183/25 128/184/25 124/185/25 123/186/25
f 128/187/26 129/188/26 125/189/26 124/190/26
f 129/191/27 130/192/27 126/184/27 125/183/27
f 130/193/28 127/194/28 123/188/28 126/187/28
f 123/195/29 124/196/29 125/193/29 126/197/29
f 130/186/30 129/185/30 128/196/30 127/195/30
o Cube.001_Cube.106
v 219.526749 8.660559 231.967087
v 219.526749 8.660559 226.231247
v 235.134201 8.660559 226.231247
v 235.134201 8.660559 231.967087
v 219.526749 9.238239 231.967087
v 219.526749 9.238239 226.231247
v 235.134201 9.238239 226.231247
v 235.134201 9.238239 231.967087
vt 0.956252 0.735013
vt 0.956252 0.367507
vt 1.000000 0.367507
vt 1.000000 0.735013
vt 0.868756 1.000000
vt 0.868755 0.000000
vt 0.912503 0.000000
vt 0.912504 1.000000
vt 0.956252 0.000000
vt 1.000000 0.000000
vt 0.956252 1.000000
vt 0.434378 1.000000
vt 0.434378 0.000000
vt 0.000000 0.000000
vt 0.000000 1.000000
vn -1.000000 0.000000 0.000000
vn 0.000000 0.000000 -1.000000
vn 1.000000 0.000000 0.000000
vn 0.000000 0.000000 1.000000
vn 0.000000 -1.000000 0.000000
vn 0.000000 1.000000 0.000000
s off
f 135/198/31 136/199/31 132/200/31 131/201/31
f 136/202/32 137/203/32 133/204/32 132/205/32
f 137/199/33 138/206/33 134/207/33 133/200/33
f 138/206/34 135/208/34 131/205/34 134/204/34
f 131/202/35 132/209/35 133/210/35 134/203/35
f 138/211/36 137/210/36 136/209/36 135/212/36
o Cube.002_Cube.107
v 235.010117 -3.757421 231.534485
v 235.038879 -3.682410 226.001282
v 235.251587 9.075548 226.090378
v 235.222809 9.000538 231.623566
v 234.432480 -3.749541 231.533264
v 234.461258 -3.674531 226.000076
v 234.673965 9.083427 226.089157
v 234.645187 9.008417 231.622360
vt 0.954870 0.865126
vt 0.954870 0.432695
vt 1.000000 0.432563
vt 1.000000 0.864995
vt 0.909740 0.997258
vt 0.909740 0.000137
vt 0.954870 0.000000
vt 0.954870 0.997120
vt 0.954870 0.432432
vt 1.000000 0.000132
vt 0.864610 0.997121
vt 0.864610 0.000000
vt 0.432305 0.000000
vt 0.864610 0.002879
vt 0.864610 1.000000
vt 0.432305 0.997120
vt 0.000000 0.002879
vt 0.000000 1.000000
vn -0.013600 -0.999800 -0.013600
vn 0.002200 0.006900 -1.000000
vn 0.013600 0.999800 0.013600
vn -0.002200 -0.006900 1.000000
vn 0.999800 -0.016700 0.005000
vn -0.999800 0.016700 -0.005000
s off
f 143/213/37 144/214/37 140/215/37 139/216/37
f 144/217/38 145/218/38 141/219/38 140/220/38
f 145/221/39 146/219/39 142/222/39 141/215/39
f 146/223/40 143/224/40 139/218/40 142/217/40
f 139/225/41 140/226/41 141/227/41 142/228/41
f 146/229/42 145/225/42 144/228/42 143/230/42
o Cube.003_Cube.109
v 219.928482 -3.757421 231.401535
v 219.957245 -3.682410 225.868332
v 220.169952 9.075548 225.957428
v 220.141174 9.000538 231.490616
v 219.350845 -3.749541 231.400314
v 219.379623 -3.674531 225.867126
v 219.592331 9.083427 225.956207
v 219.563553 9.008417 231.489410
vt 0.954870 0.865126
vt 0.954870 0.432695
vt 1.000000 0.432563
vt 1.000000 0.864995
vt 0.909740 0.997258
vt 0.909740 0.000137
vt 0.954870 0.000000
vt 0.954870 0.997120
vt 0.954870 0.432432
vt 1.000000 0.000132
vt 0.864610 0.997121
vt 0.864610 0.000000
vt 0.432305 0.000000
vt 0.864610 0.002879
vt 0.864610 1.000000
vt 0.432305 0.997120
vt 0.000000 0.002879
vt 0.000000 1.000000
vn -0.013600 -0.999800 -0.013600
vn 0.002200 0.006900 -1.000000
vn 0.013600 0.999800 0.013600
vn -0.002200 -0.006900 1.000000
vn 0.999800 -0.016700 0.005000
vn -0.999800 0.016700 -0.005000
s off
f 151/231/43 152/232/43 148/233/43 147/234/43
f 152/235/44 153/236/44 149/237/44 148/238/44
f 153/239/45 154/237/45 150/240/45 149/233/45
f 154/241/46 151/242/46 147/236/46 150/235/46
f 147/243/47 148/244/47 149/245/47 150/246/47
f 154/247/48 153/243/48 152/246/48 151/248/48
