# Blender v2.73 (sub 0) OBJ File: 'Forest.blend'
# www.blender.org
o Cube.003_Cube.004
v -67.250946 -67.321426 68.322426
v -67.250946 -67.321426 -65.187416
v 66.258896 -67.321426 -65.187416
v 66.258896 -67.321426 68.322426
v -67.250946 66.188416 68.322426
v -67.250946 66.188416 -65.187416
v 66.258896 66.188416 -65.187416
v 66.258896 66.188416 68.322426
vt 0.666667 0.000000
vt 0.666667 0.333333
vt 0.333333 0.333333
vt 0.333333 0.000000
vt 0.333333 0.666667
vt 0.000000 0.666667
vt 0.000000 0.333333
vt 0.000000 0.000000
vt 0.666667 0.666667
vt 0.333333 1.000000
vt 0.000000 1.000000
vt 1.000000 0.333333
vt 1.000000 0.000000
vn 1.000000 0.000000 0.000000
vn 0.000000 0.000000 1.000000
vn -1.000000 0.000000 0.000000
vn 0.000000 0.000000 -1.000000
vn 0.000000 1.000000 0.000000
vn 0.000000 -1.000000 0.000000
s off
f 5/1/1 1/2/1 2/3/1 6/4/1
f 6/3/2 2/5/2 3/6/2 7/7/2
f 7/8/3 3/4/3 4/3/3 8/7/3
f 8/5/4 4/3/4 1/2/4 5/9/4
f 1/6/5 4/5/5 3/10/5 2/11/5
f 8/12/6 5/2/6 6/1/6 7/13/6
