# Blender v2.73 (sub 0) OBJ File: 'Pyongyang.blend'
# www.blender.org
o Pyongyang_Building6_Cube.020
v 1537.465088 -30.993351 1467.852661
v 1537.465088 -30.993351 1196.796509
v 1808.521240 -30.993351 1196.796509
v 1808.521240 -30.993351 1467.852661
v 1537.465088 451.422302 1467.852661
v 1537.465088 451.422302 1196.796509
v 1808.521240 451.422302 1196.796509
v 1808.521240 451.422302 1467.852661
vt 0.333333 0.000000
vt 0.666667 0.000000
vt 0.666667 0.500000
vt 0.333333 0.500000
vt 0.000000 0.500000
vt 0.000000 0.000000
vt 0.333333 1.000000
vt 0.000000 1.000000
vt 1.000000 0.000000
vt 1.000000 0.500000
vt 0.666667 0.780936
vt 1.000000 0.780936
vt 0.333333 0.780936
vn -1.000000 0.000000 0.000000
vn 0.000000 0.000000 -1.000000
vn 1.000000 0.000000 0.000000
vn 0.000000 0.000000 1.000000
vn 0.000000 -1.000000 0.000000
vn 0.000000 1.000000 0.000000
s off
f 5/1/1 6/2/1 2/3/1 1/4/1
f 6/4/2 7/5/2 3/6/2 2/1/2
f 7/7/3 8/8/3 4/5/3 3/4/3
f 8/2/4 5/9/4 1/10/4 4/3/4
f 1/11/5 2/3/5 3/10/5 4/12/5
f 8/3/6 7/11/6 6/13/6 5/4/6
o Pyongyang_Building6.002_Cube.043
v -1320.432739 -34.916069 1541.299561
v -1320.432739 -34.916069 1184.980957
v -964.114075 -34.916069 1184.980957
v -964.114075 -34.916069 1541.299561
v -1320.432739 599.246521 1541.299561
v -1320.432739 599.246521 1184.980957
v -964.114075 599.246521 1184.980957
v -964.114075 599.246521 1541.299561
vt 0.333333 0.000000
vt 0.666667 0.000000
vt 0.666667 0.500000
vt 0.333333 0.500000
vt 0.000000 0.500000
vt 0.000000 0.000000
vt 0.333333 1.000000
vt 0.000000 1.000000
vt 1.000000 0.000000
vt 1.000000 0.500000
vt 0.666667 0.780936
vt 1.000000 0.780936
vt 0.333333 0.780936
vn -1.000000 0.000000 0.000000
vn 0.000000 0.000000 -1.000000
vn 1.000000 0.000000 0.000000
vn 0.000000 0.000000 1.000000
vn 0.000000 -1.000000 0.000000
vn 0.000000 1.000000 0.000000
s off
f 13/14/7 14/15/7 10/16/7 9/17/7
f 14/17/8 15/18/8 11/19/8 10/14/8
f 15/20/9 16/21/9 12/18/9 11/17/9
f 16/15/10 13/22/10 9/23/10 12/16/10
f 9/24/11 10/16/11 11/23/11 12/25/11
f 16/16/12 15/24/12 14/26/12 13/17/12
o Pyongyang_Building6.003_Cube.044
v -1782.139648 -30.993351 344.247742
v -1782.139648 -30.993351 73.191483
v -1511.083496 -30.993351 73.191483
v -1511.083496 -30.993351 344.247742
v -1782.139648 451.422302 344.247742
v -1782.139648 451.422302 73.191483
v -1511.083496 451.422302 73.191483
v -1511.083496 451.422302 344.247742
vt 0.333333 0.000000
vt 0.666667 0.000000
vt 0.666667 0.500000
vt 0.333333 0.500000
vt 0.000000 0.500000
vt 0.000000 0.000000
vt 0.333333 1.000000
vt 0.000000 1.000000
vt 1.000000 0.000000
vt 1.000000 0.500000
vt 0.666667 0.780936
vt 1.000000 0.780936
vt 0.333333 0.780936
vn -1.000000 0.000000 0.000000
vn 0.000000 0.000000 -1.000000
vn 1.000000 0.000000 0.000000
vn 0.000000 0.000000 1.000000
vn 0.000000 -1.000000 0.000000
vn 0.000000 1.000000 0.000000
s off
f 21/27/13 22/28/13 18/29/13 17/30/13
f 22/30/14 23/31/14 19/32/14 18/27/14
f 23/33/15 24/34/15 20/31/15 19/30/15
f 24/28/16 21/35/16 17/36/16 20/29/16
f 17/37/17 18/29/17 19/36/17 20/38/17
f 24/29/18 23/37/18 22/39/18 21/30/18
o Pyongyang_Building6.004_Cube.045
v 89.642410 -30.993351 36.867577
v -181.369461 -30.993351 31.963982
v -176.465866 -30.993351 -239.047882
v 94.546005 -30.993351 -234.144287
v 89.642410 451.422302 36.867577
v -181.369461 451.422302 31.963982
v -176.465866 451.422302 -239.047882
v 94.546005 451.422302 -234.144287
vt 0.333333 0.000000
vt 0.666667 0.000000
vt 0.666667 0.500000
vt 0.333333 0.500000
vt 0.000000 0.500000
vt 0.000000 0.000000
vt 0.333333 1.000000
vt 0.000000 1.000000
vt 1.000000 0.000000
vt 1.000000 0.500000
vt 0.666667 0.780936
vt 1.000000 0.780936
vt 0.333333 0.780936
vn -0.018100 0.000000 0.999800
vn -0.999800 0.000000 -0.018100
vn 0.018100 0.000000 -0.999800
vn 0.999800 0.000000 0.018100
vn 0.000000 -1.000000 0.000000
vn 0.000000 1.000000 0.000000
s off
f 29/40/19 30/41/19 26/42/19 25/43/19
f 30/43/20 31/44/20 27/45/20 26/40/20
f 31/46/21 32/47/21 28/44/21 27/43/21
f 32/41/22 29/48/22 25/49/22 28/42/22
f 25/50/23 26/42/23 27/49/23 28/51/23
f 32/42/24 31/50/24 30/52/24 29/43/24
o Pyongyang_Building6.005_Cube.054
v 1873.847046 -90.085808 -66.262955
v 1602.793823 -90.085808 -67.553238
v 1604.084106 -90.085808 -338.606384
v 1875.137329 -90.085808 -337.316101
v 1873.847046 392.329865 -66.262955
v 1602.793823 392.329865 -67.553238
v 1604.084106 392.329865 -338.606384
v 1875.137329 392.329865 -337.316101
vt 0.333333 0.000000
vt 0.666667 0.000000
vt 0.666667 0.500000
vt 0.333333 0.500000
vt 0.000000 0.500000
vt 0.000000 0.000000
vt 0.333333 1.000000
vt 0.000000 1.000000
vt 1.000000 0.000000
vt 1.000000 0.500000
vt 0.666667 0.780936
vt 1.000000 0.780936
vt 0.333333 0.780936
vn -0.004800 0.000000 1.000000
vn -1.000000 0.000000 -0.004800
vn 0.004800 0.000000 -1.000000
vn 1.000000 0.000000 0.004800
vn 0.000000 -1.000000 0.000000
vn 0.000000 1.000000 0.000000
s off
f 37/53/25 38/54/25 34/55/25 33/56/25
f 38/56/26 39/57/26 35/58/26 34/53/26
f 39/59/27 40/60/27 36/57/27 35/56/27
f 40/54/28 37/61/28 33/62/28 36/55/28
f 33/63/29 34/55/29 35/62/29 36/64/29
f 40/55/30 39/63/30 38/65/30 37/56/30
o Pyongyang_Building6.006_Cube.055
v 1583.062866 -30.993351 -268.460632
v 1583.062866 -30.993351 -539.516846
v 1854.119019 -30.993351 -539.516846
v 1854.119019 -30.993351 -268.460632
v 1583.062866 451.422302 -268.460632
v 1583.062866 451.422302 -539.516846
v 1854.119019 451.422302 -539.516846
v 1854.119019 451.422302 -268.460632
vt 0.333333 0.000000
vt 0.666667 0.000000
vt 0.666667 0.500000
vt 0.333333 0.500000
vt 0.000000 0.500000
vt 0.000000 0.000000
vt 0.333333 1.000000
vt 0.000000 1.000000
vt 1.000000 0.000000
vt 1.000000 0.500000
vt 0.666667 0.780936
vt 1.000000 0.780936
vt 0.333333 0.780936
vn -1.000000 0.000000 0.000000
vn 0.000000 0.000000 -1.000000
vn 1.000000 0.000000 0.000000
vn 0.000000 0.000000 1.000000
vn 0.000000 -1.000000 0.000000
vn 0.000000 1.000000 0.000000
s off
f 45/66/31 46/67/31 42/68/31 41/69/31
f 46/69/32 47/70/32 43/71/32 42/66/32
f 47/72/33 48/73/33 44/70/33 43/69/33
f 48/67/34 45/74/34 41/75/34 44/68/34
f 41/76/35 42/68/35 43/75/35 44/77/35
f 48/68/36 47/76/36 46/78/36 45/69/36
