# Blender v2.73 (sub 0) OBJ File: 'Pyongyang.blend'
# www.blender.org
o Cube.011_Cube.015
v -1679.022217 -54.152588 -612.777405
v -1679.022217 -54.152588 -3091.391602
v -1573.108398 -54.152588 -3091.391602
v -1573.108398 -54.152588 -612.777405
v -1679.022217 448.076324 -612.777405
v -1679.022217 448.076324 -3091.391602
v -1573.108398 448.076324 -3091.391602
v -1573.108398 448.076324 -612.777405
vt 0.379844 1.000000
vt 0.379844 0.000000
vt 0.759687 0.000000
vt 0.759687 1.000000
vt 0.919896 0.202625
vt 1.000000 0.202625
vt 1.000000 0.405250
vt 0.919896 0.405250
vt 0.000001 1.000000
vt 0.000000 0.000000
vt 0.919896 0.000000
vt 1.000000 0.000000
vt 0.839792 0.000000
vt 0.839791 1.000000
vt 0.919896 1.000000
vn -1.000000 0.000000 0.000000
vn 0.000000 0.000000 -1.000000
vn 1.000000 0.000000 0.000000
vn 0.000000 0.000000 1.000000
vn 0.000000 -1.000000 0.000000
vn 0.000000 1.000000 0.000000
s off
f 5/1/1 6/2/1 2/3/1 1/4/1
f 6/5/2 7/6/2 3/7/2 2/8/2
f 7/9/3 8/10/3 4/2/3 3/1/3
f 8/11/4 5/12/4 1/6/4 4/5/4
f 1/4/5 2/3/5 3/13/5 4/14/5
f 8/11/6 7/15/6 6/14/6 5/13/6
o Cube.012_Cube.016
v 1583.786377 -54.152588 -519.954956
v 1583.786377 -54.152588 -3091.391602
v 1689.700195 -54.152588 -3091.391602
v 1689.700195 -54.152588 -519.954956
v 1583.786377 448.076324 -519.954956
v 1583.786377 448.076324 -3091.391602
v 1689.700195 448.076324 -3091.391602
v 1689.700195 448.076324 -519.954956
vt 0.379844 1.000000
vt 0.379844 0.000000
vt 0.759687 0.000000
vt 0.759687 1.000000
vt 0.919896 0.000000
vt 1.000000 0.000000
vt 1.000000 0.195311
vt 0.919896 0.195311
vt 0.000001 1.000000
vt 0.000000 0.000000
vt 1.000000 0.390621
vt 0.919896 0.390621
vt 0.839792 1.000000
vt 0.839792 0.000000
vt 0.919896 1.000000
vn -1.000000 0.000000 0.000000
vn 0.000000 0.000000 -1.000000
vn 1.000000 0.000000 0.000000
vn 0.000000 0.000000 1.000000
vn 0.000000 -1.000000 0.000000
vn 0.000000 1.000000 0.000000
s off
f 13/16/7 14/17/7 10/18/7 9/19/7
f 14/20/8 15/21/8 11/22/8 10/23/8
f 15/24/9 16/25/9 12/17/9 11/16/9
f 16/23/10 13/22/10 9/26/10 12/27/10
f 9/28/11 10/29/11 11/20/11 12/30/11
f 16/29/12 15/28/12 14/19/12 13/18/12
