# Blender v2.73 (sub 0) OBJ File: 'Pyongyang.blend'
# www.blender.org
o Pyongyang_Building1_Cube.030
v 214.363190 -16.774527 19.939606
v 214.363190 -16.774527 -231.824860
v 660.151184 -16.774527 -231.824860
v 660.151184 -16.774527 19.939606
v 214.363190 130.490631 19.939606
v 214.363190 130.490631 -231.824860
v 660.151184 130.490631 -231.824860
v 660.151184 130.490631 19.939606
vt 0.184529 1.000000
vt 0.184529 0.639075
vt 0.369058 0.639074
vt 0.369058 1.000000
vt 0.815471 0.639075
vt 0.815471 0.000000
vt 1.000000 0.000000
vt 1.000000 0.639075
vt 0.000000 1.000000
vt 0.000000 0.639075
vt 0.630942 0.639075
vt 0.630942 0.000000
vt 0.315471 0.639075
vt 0.000000 0.000000
vt 0.315471 0.000000
vn -1.000000 0.000000 0.000000
vn 0.000000 0.000000 -1.000000
vn 1.000000 0.000000 0.000000
vn 0.000000 0.000000 1.000000
vn 0.000000 -1.000000 0.000000
vn 0.000000 1.000000 0.000000
s off
f 5/1/1 6/2/1 2/3/1 1/4/1
f 6/5/2 7/6/2 3/7/2 2/8/2
f 7/9/3 8/10/3 4/2/3 3/1/3
f 8/6/4 5/5/4 1/11/4 4/12/4
f 1/13/5 2/10/5 3/14/5 4/15/5
f 8/15/6 7/12/6 6/11/6 5/13/6
o Pyongyang_Building1.001_Cube.040
v -1854.529419 -30.970118 913.408936
v -1560.382324 -30.970118 910.014771
v -1554.372437 -30.970118 1430.847900
v -1848.519653 -30.970118 1434.242065
v -1854.529419 141.097580 913.408936
v -1560.382324 141.097580 910.014771
v -1554.372437 141.097580 1430.847900
v -1848.519653 141.097580 1434.242065
vt 0.184529 1.000000
vt 0.184529 0.639075
vt 0.369058 0.639074
vt 0.369058 1.000000
vt 0.815471 0.639075
vt 0.815471 0.000000
vt 1.000000 0.000000
vt 1.000000 0.639075
vt 0.000000 1.000000
vt 0.000000 0.639075
vt 0.630942 0.639075
vt 0.630942 0.000000
vt 0.315471 0.639075
vt 0.000000 0.000000
vt 0.315471 0.000000
vn -0.011500 0.000000 -0.999900
vn 0.999900 0.000000 -0.011500
vn 0.011500 0.000000 0.999900
vn -0.999900 0.000000 0.011500
vn 0.000000 -1.000000 0.000000
vn 0.000000 1.000000 -0.000000
s off
f 13/16/7 14/17/7 10/18/7 9/19/7
f 14/20/8 15/21/8 11/22/8 10/23/8
f 15/24/9 16/25/9 12/17/9 11/16/9
f 16/21/10 13/20/10 9/26/10 12/27/10
f 9/28/11 10/25/11 11/29/11 12/30/11
f 16/30/12 15/27/12 14/26/12 13/28/12
o Pyongyang_Building1.002_Cube.058
v -1012.153076 -16.774527 1465.838135
v -1012.153076 -16.774527 1214.073608
v -566.365051 -16.774527 1214.073608
v -566.365051 -16.774527 1465.838135
v -1012.153076 130.490631 1465.838135
v -1012.153076 130.490631 1214.073608
v -566.365051 130.490631 1214.073608
v -566.365051 130.490631 1465.838135
vt 0.184529 1.000000
vt 0.184529 0.639075
vt 0.369058 0.639074
vt 0.369058 1.000000
vt 0.815471 0.639075
vt 0.815471 0.000000
vt 1.000000 0.000000
vt 1.000000 0.639075
vt 0.000000 1.000000
vt 0.000000 0.639075
vt 0.630942 0.639075
vt 0.630942 0.000000
vt 0.315471 0.639075
vt 0.000000 0.000000
vt 0.315471 0.000000
vn -1.000000 0.000000 0.000000
vn 0.000000 0.000000 -1.000000
vn 1.000000 0.000000 0.000000
vn 0.000000 0.000000 1.000000
vn 0.000000 -1.000000 0.000000
vn 0.000000 1.000000 0.000000
s off
f 21/31/13 22/32/13 18/33/13 17/34/13
f 22/35/14 23/36/14 19/37/14 18/38/14
f 23/39/15 24/40/15 20/32/15 19/31/15
f 24/36/16 21/35/16 17/41/16 20/42/16
f 17/43/17 18/40/17 19/44/17 20/45/17
f 24/45/18 23/42/18 22/41/18 21/43/18
