# Blender v2.73 (sub 0) OBJ File: 'Pyongyang.blend'
# www.blender.org
o Pyongyang_Building5_Cube.019
v 1702.611572 -34.410233 936.820923
v 1702.611572 -34.410233 591.496826
v 2047.935547 -34.410233 591.496826
v 2047.935547 -34.410233 936.820923
v 1702.611572 379.454956 936.820923
v 1702.611572 379.454956 591.496826
v 2047.935547 379.454956 591.496826
v 2047.935547 379.454956 936.820923
vt 0.000000 0.000000
vt 0.333333 0.000000
vt 0.333333 0.500000
vt 0.000000 0.500000
vt 0.666667 1.000000
vt 0.333333 1.000000
vt 0.666667 0.500000
vt 0.000000 1.000000
vt 0.666667 0.000000
vt 0.666667 0.834388
vt 0.666667 0.417194
vt 1.000000 0.417194
vt 1.000000 0.834388
vt 1.000000 0.000000
vn -1.000000 0.000000 0.000000
vn 0.000000 0.000000 -1.000000
vn 1.000000 0.000000 0.000000
vn 0.000000 0.000000 1.000000
vn 0.000000 -1.000000 0.000000
vn 0.000000 1.000000 0.000000
s off
f 5/1/1 6/2/1 2/3/1 1/4/1
f 6/5/2 7/6/2 3/3/2 2/7/2
f 7/4/3 8/3/3 4/6/3 3/8/3
f 8/2/4 5/9/4 1/7/4 4/3/4
f 1/10/5 2/11/5 3/12/5 4/13/5
f 8/14/6 7/12/6 6/11/6 5/9/6
o Pyongyang_Building5.001_Cube.035
v 321.036743 -20.310387 1450.909912
v 0.528625 -20.310387 1460.280273
v -8.841736 -20.310387 1139.772217
v 311.666382 -20.310387 1130.401855
v 321.036743 363.977478 1450.909912
v 0.528625 363.977478 1460.280273
v -8.841736 363.977478 1139.772217
v 311.666382 363.977478 1130.401855
vt 0.000000 0.000000
vt 0.333333 0.000000
vt 0.333333 0.500000
vt 0.000000 0.500000
vt 0.666667 1.000000
vt 0.333333 1.000000
vt 0.666667 0.500000
vt 0.000000 1.000000
vt 0.666667 0.000000
vt 0.666667 0.834388
vt 0.666667 0.417194
vt 1.000000 0.417194
vt 1.000000 0.834388
vt 1.000000 0.000000
vn 0.029200 0.000000 0.999600
vn -0.999600 0.000000 0.029200
vn -0.029200 0.000000 -0.999600
vn 0.999600 0.000000 -0.029200
vn 0.000000 -1.000000 0.000000
vn 0.000000 1.000000 0.000000
s off
f 13/15/7 14/16/7 10/17/7 9/18/7
f 14/19/8 15/20/8 11/17/8 10/21/8
f 15/18/9 16/17/9 12/20/9 11/22/9
f 16/16/10 13/23/10 9/21/10 12/17/10
f 9/24/11 10/25/11 11/26/11 12/27/11
f 16/28/12 15/26/12 14/25/12 13/23/12
o Pyongyang_Building5.002_Cube.047
v 876.483093 -26.761040 251.079254
v 876.483093 -26.761040 72.014771
v 1055.547607 -26.761040 72.014771
v 1055.547607 -26.761040 251.079254
v 876.483093 187.844788 251.079254
v 876.483093 187.844788 72.014771
v 1055.547607 187.844788 72.014771
v 1055.547607 187.844788 251.079254
vt 0.000000 0.000000
vt 0.333333 0.000000
vt 0.333333 0.500000
vt 0.000000 0.500000
vt 0.666667 1.000000
vt 0.333333 1.000000
vt 0.666667 0.500000
vt 0.000000 1.000000
vt 0.666667 0.000000
vt 0.666667 0.834388
vt 0.666667 0.417194
vt 1.000000 0.417194
vt 1.000000 0.834388
vt 1.000000 0.000000
vn -1.000000 0.000000 0.000000
vn 0.000000 0.000000 -1.000000
vn 1.000000 0.000000 0.000000
vn 0.000000 0.000000 1.000000
vn 0.000000 -1.000000 0.000000
vn 0.000000 1.000000 0.000000
s off
f 21/29/13 22/30/13 18/31/13 17/32/13
f 22/33/14 23/34/14 19/31/14 18/35/14
f 23/32/15 24/31/15 20/34/15 19/36/15
f 24/30/16 21/37/16 17/35/16 20/31/16
f 17/38/17 18/39/17 19/40/17 20/41/17
f 24/42/18 23/40/18 22/39/18 21/37/18
o Pyongyang_Building5.003_Cube.053
v -1823.282471 220.685028 64.550926
v -1823.282471 -246.114014 68.854294
v -1589.155518 -246.114014 68.854294
v -1589.155518 220.685028 64.550926
v -1823.282471 218.098358 -216.034378
v -1823.282471 -248.700714 -211.731003
v -1589.155518 -248.700714 -211.731003
v -1589.155518 218.098358 -216.034378
vt 0.000000 0.500000
vt 0.000000 0.000000
vt 0.352810 0.000000
vt 0.352810 0.500000
vt 0.294380 0.500000
vt 0.588760 0.500000
vt 0.588761 0.800542
vt 0.294380 0.800542
vt 0.705620 0.000000
vt 0.705620 0.500000
vt 0.883141 0.500000
vt 0.883141 0.800542
vt 0.000000 1.000000
vt 0.294380 1.000000
vt 1.000000 0.000000
vt 1.000000 0.500000
vn -1.000000 0.000000 0.000000
vn 0.000000 -1.000000 0.009200
vn 1.000000 0.000000 0.000000
vn 0.000000 1.000000 -0.009200
vn 0.000000 0.009200 1.000000
vn 0.000000 -0.009200 -1.000000
s off
f 29/43/19 30/44/19 26/45/19 25/46/19
f 30/47/20 31/48/20 27/49/20 26/50/20
f 31/51/21 32/52/21 28/46/21 27/45/21
f 32/48/22 29/53/22 25/54/22 28/49/22
f 25/55/23 26/43/23 27/47/23 28/56/23
f 32/57/24 31/58/24 30/52/24 29/51/24
o Pyongyang_Building5.004_Cube.056
v -1653.880859 -34.410233 1493.464600
v -1653.880859 -34.410233 1148.140381
v -1308.556641 -34.410233 1148.140381
v -1308.556641 -34.410233 1493.464600
v -1653.880859 379.454956 1493.464600
v -1653.880859 379.454956 1148.140381
v -1308.556641 379.454956 1148.140381
v -1308.556641 379.454956 1493.464600
vt 0.000000 0.000000
vt 0.333333 0.000000
vt 0.333333 0.500000
vt 0.000000 0.500000
vt 0.666667 1.000000
vt 0.333333 1.000000
vt 0.666667 0.500000
vt 0.000000 1.000000
vt 0.666667 0.000000
vt 0.666667 0.834388
vt 0.666667 0.417194
vt 1.000000 0.417194
vt 1.000000 0.834388
vt 1.000000 0.000000
vn -1.000000 0.000000 0.000000
vn 0.000000 0.000000 -1.000000
vn 1.000000 0.000000 0.000000
vn 0.000000 0.000000 1.000000
vn 0.000000 -1.000000 0.000000
vn 0.000000 1.000000 0.000000
s off
f 37/59/25 38/60/25 34/61/25 33/62/25
f 38/63/26 39/64/26 35/61/26 34/65/26
f 39/62/27 40/61/27 36/64/27 35/66/27
f 40/60/28 37/67/28 33/65/28 36/61/28
f 33/68/29 34/69/29 35/70/29 36/71/29
f 40/72/30 39/70/30 38/69/30 37/67/30
o Pyongyang_Building5.005_Cube.002
v -1820.284058 220.685028 -187.219299
v -1820.284058 -246.114014 -182.915939
v -1586.157104 -246.114014 -182.915939
v -1586.157104 220.685028 -187.219299
v -1820.284058 218.098358 -467.804626
v -1820.284058 -248.700714 -463.501221
v -1586.157104 -248.700714 -463.501221
v -1586.157104 218.098358 -467.804626
vt 0.000000 0.500000
vt 0.000000 0.000000
vt 0.352810 0.000000
vt 0.352810 0.500000
vt 0.294380 0.500000
vt 0.588760 0.500000
vt 0.588761 0.800542
vt 0.294380 0.800542
vt 0.705620 0.000000
vt 0.705620 0.500000
vt 0.883141 0.500000
vt 0.883141 0.800542
vt 0.000000 1.000000
vt 0.294380 1.000000
vt 1.000000 0.000000
vt 1.000000 0.500000
vn -1.000000 -0.000000 0.000000
vn 0.000000 -1.000000 0.009200
vn 1.000000 0.000000 0.000000
vn 0.000000 1.000000 -0.009200
vn 0.000000 0.009200 1.000000
vn 0.000000 -0.009200 -1.000000
s off
f 45/73/31 46/74/31 42/75/31 41/76/31
f 46/77/32 47/78/32 43/79/32 42/80/32
f 47/81/33 48/82/33 44/76/33 43/75/33
f 48/78/34 45/83/34 41/84/34 44/79/34
f 41/85/35 42/73/35 43/77/35 44/86/35
f 48/87/36 47/88/36 46/82/36 45/81/36
o Pyongyang_Building5.006_Cube.003
v -1823.282471 220.685028 -390.521149
v -1823.282471 -246.114014 -386.217773
v -1589.155518 -246.114014 -386.217773
v -1589.155518 220.685028 -390.521149
v -1823.282471 218.098358 -671.106445
v -1823.282471 -248.700714 -666.803101
v -1589.155518 -248.700714 -666.803101
v -1589.155518 218.098358 -671.106445
vt 0.000000 0.500000
vt 0.000000 0.000000
vt 0.352810 0.000000
vt 0.352810 0.500000
vt 0.294380 0.500000
vt 0.588760 0.500000
vt 0.588761 0.800542
vt 0.294380 0.800542
vt 0.705620 0.000000
vt 0.705620 0.500000
vt 0.883141 0.500000
vt 0.883141 0.800542
vt 0.000000 1.000000
vt 0.294380 1.000000
vt 1.000000 0.000000
vt 1.000000 0.500000
vn -1.000000 0.000000 0.000000
vn 0.000000 -1.000000 0.009200
vn 1.000000 0.000000 0.000000
vn 0.000000 1.000000 -0.009200
vn 0.000000 0.009200 1.000000
vn 0.000000 -0.009200 -1.000000
s off
f 53/89/37 54/90/37 50/91/37 49/92/37
f 54/93/38 55/94/38 51/95/38 50/96/38
f 55/97/39 56/98/39 52/92/39 51/91/39
f 56/94/40 53/99/40 49/100/40 52/95/40
f 49/101/41 50/89/41 51/93/41 52/102/41
f 56/103/42 55/104/42 54/98/42 53/97/42
