# Blender v2.73 (sub 0) OBJ File: 'Pyongyang.blend'
# www.blender.org
o Pyongyang_Building4_Cube.018
v 1657.141724 -31.678404 604.323303
v 1657.141724 -31.678404 211.685944
v 1943.088013 -31.678404 211.685944
v 1943.088013 -31.678404 604.323303
v 1657.141724 712.068237 604.323303
v 1657.141724 712.068237 211.685944
v 1943.088013 712.068237 211.685944
v 1943.088013 712.068237 604.323303
vt 0.210693 0.654485
vt 0.210693 1.000000
vt 0.000000 1.000000
vt 0.000000 0.654485
vt 0.289307 0.000000
vt 0.578613 0.000000
vt 0.578613 0.654485
vt 0.289307 0.654485
vt 0.789306 0.000000
vt 0.789307 0.654485
vt 0.000000 0.000000
vt 1.000000 0.000000
vt 1.000000 0.654485
vt 0.421387 0.654485
vt 0.421387 1.000000
vn 0.000000 1.000000 0.000000
vn -1.000000 0.000000 0.000000
vn 0.000000 0.000000 -1.000000
vn 1.000000 0.000000 0.000000
vn 0.000000 0.000000 1.000000
vn 0.000000 -1.000000 0.000000
s off
f 8/1/1 7/2/1 6/3/1 5/4/1
f 5/5/2 6/6/2 2/7/2 1/8/2
f 6/6/3 7/9/3 3/10/3 2/7/3
f 7/11/4 8/5/4 4/8/4 3/4/4
f 8/9/5 5/12/5 1/13/5 4/10/5
f 1/2/6 2/1/6 3/14/6 4/15/6
o Pyongyang_building4.001_Cube.033
v 877.379944 -29.781061 1368.847900
v 541.506470 -29.781061 1378.432373
v 534.526428 -29.781061 1133.825562
v 870.399902 -29.781061 1124.241089
v 877.379944 606.700684 1368.847900
v 541.506470 606.700684 1378.432373
v 534.526428 606.700684 1133.825562
v 870.399902 606.700684 1124.241089
vt 0.210693 0.654485
vt 0.210693 1.000000
vt 0.000000 1.000000
vt 0.000000 0.654485
vt 0.289307 0.000000
vt 0.578613 0.000000
vt 0.578613 0.654485
vt 0.289307 0.654485
vt 0.789306 0.000000
vt 0.789307 0.654485
vt 0.000000 0.000000
vt 1.000000 0.000000
vt 1.000000 0.654485
vt 0.421387 0.654485
vt 0.421387 1.000000
vn 0.000000 1.000000 0.000000
vn 0.028500 0.000000 0.999600
vn -0.999600 0.000000 0.028500
vn -0.028500 0.000000 -0.999600
vn 0.999600 0.000000 -0.028500
vn 0.000000 -1.000000 0.000000
s off
f 16/16/7 15/17/7 14/18/7 13/19/7
f 13/20/8 14/21/8 10/22/8 9/23/8
f 14/21/9 15/24/9 11/25/9 10/22/9
f 15/26/10 16/20/10 12/23/10 11/19/10
f 16/24/11 13/27/11 9/28/11 12/25/11
f 9/17/12 10/16/12 11/29/12 12/30/12
o Pyongyang_building4.002_Cube.037
v -207.161987 -400.190491 1451.125366
v -599.792358 -400.190491 1454.025635
v -601.904541 -400.190491 1168.084473
v -209.274170 -400.190491 1165.184204
v -207.161987 343.563202 1451.125366
v -599.792358 343.563202 1454.025635
v -601.904541 343.563202 1168.084473
v -209.274170 343.563202 1165.184204
vt 0.210693 0.654485
vt 0.210693 1.000000
vt 0.000000 1.000000
vt 0.000000 0.654485
vt 0.289307 0.000000
vt 0.578613 0.000000
vt 0.578613 0.654485
vt 0.289307 0.654485
vt 0.789306 0.000000
vt 0.789307 0.654485
vt 0.000000 0.000000
vt 1.000000 0.000000
vt 1.000000 0.654485
vt 0.421387 0.654485
vt 0.421387 1.000000
vn 0.000000 1.000000 0.000000
vn 0.007400 0.000000 1.000000
vn -1.000000 0.000000 0.007400
vn -0.007400 0.000000 -1.000000
vn 1.000000 0.000000 -0.007400
vn 0.000000 -1.000000 0.000000
s off
f 24/31/13 23/32/13 22/33/13 21/34/13
f 21/35/14 22/36/14 18/37/14 17/38/14
f 22/36/15 23/39/15 19/40/15 18/37/15
f 23/41/16 24/35/16 20/38/16 19/34/16
f 24/39/17 21/42/17 17/43/17 20/40/17
f 17/32/18 18/31/18 19/44/18 20/45/18
o Pyongyang_building4.003_Cube.042
v -1847.338013 -29.251368 650.196899
v -1847.338013 -29.251368 329.995544
v -1614.144897 -29.251368 329.995544
v -1614.144897 -29.251368 650.196899
v -1847.338013 577.284546 650.196899
v -1847.338013 577.284546 329.995544
v -1614.144897 577.284546 329.995544
v -1614.144897 577.284546 650.196899
vt 0.210693 0.654485
vt 0.210693 1.000000
vt 0.000000 1.000000
vt 0.000000 0.654485
vt 0.289307 0.000000
vt 0.578613 0.000000
vt 0.578613 0.654485
vt 0.289307 0.654485
vt 0.789306 0.000000
vt 0.789307 0.654485
vt 0.000000 0.000000
vt 1.000000 0.000000
vt 1.000000 0.654485
vt 0.421387 0.654485
vt 0.421387 1.000000
vn 0.000000 1.000000 0.000000
vn -1.000000 0.000000 0.000000
vn 0.000000 0.000000 -1.000000
vn 1.000000 0.000000 0.000000
vn 0.000000 0.000000 1.000000
vn 0.000000 -1.000000 0.000000
s off
f 32/46/19 31/47/19 30/48/19 29/49/19
f 29/50/20 30/51/20 26/52/20 25/53/20
f 30/51/21 31/54/21 27/55/21 26/52/21
f 31/56/22 32/50/22 28/53/22 27/49/22
f 32/54/23 29/57/23 25/58/23 28/55/23
f 25/47/24 26/46/24 27/59/24 28/60/24
o Pyongyang_building4.004_Cube.046
v -76.309395 -31.678404 570.367249
v -79.178780 -31.678404 177.740341
v 206.759827 -31.678404 175.650650
v 209.629211 -31.678404 568.277527
v -76.309395 712.068237 570.367249
v -79.178780 712.068237 177.740341
v 206.759827 712.068237 175.650650
v 209.629211 712.068237 568.277527
vt 0.210693 0.654485
vt 0.210693 1.000000
vt 0.000000 1.000000
vt 0.000000 0.654485
vt 0.289307 0.000000
vt 0.578613 0.000000
vt 0.578613 0.654485
vt 0.289307 0.654485
vt 0.789306 0.000000
vt 0.789307 0.654485
vt 0.000000 0.000000
vt 1.000000 0.000000
vt 1.000000 0.654485
vt 0.421387 0.654485
vt 0.421387 1.000000
vn 0.000000 1.000000 0.000000
vn -1.000000 0.000000 0.007300
vn -0.007300 0.000000 -1.000000
vn 1.000000 0.000000 -0.007300
vn 0.007300 0.000000 1.000000
vn 0.000000 -1.000000 0.000000
s off
f 40/61/25 39/62/25 38/63/25 37/64/25
f 37/65/26 38/66/26 34/67/26 33/68/26
f 38/66/27 39/69/27 35/70/27 34/67/27
f 39/71/28 40/65/28 36/68/28 35/64/28
f 40/69/29 37/72/29 33/73/29 36/70/29
f 33/62/30 34/61/30 35/74/30 36/75/30
