# Blender v2.73 (sub 0) OBJ File: 'Pyongyang.blend'
# www.blender.org
o Cube.013
v -1675.713501 -420.271332 -1435.224976
v -1675.713501 -420.271332 -1602.644165
v 1610.578369 -420.271332 -1602.644165
v 1610.578369 -420.271332 -1435.224976
v -1675.713501 -347.371704 -1435.224976
v -1675.713501 -347.371704 -1602.644165
v 1610.578369 -347.371704 -1602.644165
v 1610.578369 -347.371704 -1435.224976
vt 0.868303 0.050945
vt 0.868303 0.000000
vt 1.000000 0.000000
vt 1.000000 0.050945
vt 0.604907 1.000000
vt 0.604906 0.000000
vt 0.736604 0.000000
vt 0.736605 1.000000
vt 0.868303 0.101889
vt 1.000000 0.101889
vt 0.868303 1.000000
vt 0.302453 1.000000
vt 0.000001 1.000000
vt 0.000000 0.000000
vt 0.302452 0.000000
vn -1.000000 0.000000 0.000000
vn 0.000000 0.000000 -1.000000
vn 1.000000 0.000000 0.000000
vn 0.000000 0.000000 1.000000
vn 0.000000 -1.000000 0.000000
vn 0.000000 1.000000 0.000000
s off
f 5/1/1 6/2/1 2/3/1 1/4/1
f 6/5/2 7/6/2 3/7/2 2/8/2
f 7/9/3 8/1/3 4/4/3 3/10/3
f 8/2/4 5/11/4 1/8/4 4/7/4
f 1/12/5 2/13/5 3/14/5 4/15/5
f 8/15/6 7/6/6 6/5/6 5/12/6
