# Blender v2.73 (sub 0) OBJ File: 'Pyongyang.blend'
# www.blender.org
o Pyongyang_Building2_Cube.029
v 834.166504 -16.811926 86.332336
v 834.166504 -16.811926 -232.732819
v 1066.532227 -16.811926 -232.732819
v 1066.532227 -16.811926 86.332336
v 834.166504 576.667358 86.332336
v 834.166504 576.667358 -232.732819
v 1066.532227 576.667358 -232.732819
v 1066.532227 576.667358 86.332336
vt 0.578613 0.650357
vt 0.289307 0.650357
vt 0.289307 0.000000
vt 0.578613 0.000000
vt 1.000000 0.650357
vt 0.789307 0.650357
vt 0.789307 0.000000
vt 1.000000 0.000000
vt 0.000000 0.000000
vt 0.000000 0.650357
vt 0.210693 1.000000
vt 0.210693 0.650357
vt 0.421387 0.650357
vt 0.421387 1.000000
vt 0.000000 1.000000
vn -1.000000 0.000000 0.000000
vn 0.000000 0.000000 -1.000000
vn 1.000000 0.000000 0.000000
vn 0.000000 0.000000 1.000000
vn 0.000000 -1.000000 0.000000
vn 0.000000 1.000000 0.000000
s off
f 5/1/1 6/2/1 2/3/1 1/4/1
f 6/5/2 7/6/2 3/7/2 2/8/2
f 7/9/3 8/3/3 4/2/3 3/10/3
f 8/4/4 5/7/4 1/6/4 4/1/4
f 1/11/5 2/12/5 3/13/5 4/14/5
f 8/12/6 7/11/6 6/15/6 5/10/6
o Pyongyang_Building2.001_Cube.036
v 27.625946 -176.814423 1217.582153
v 26.296478 -176.814423 1586.563721
v -242.421967 -176.814423 1585.595581
v -241.092499 -176.814423 1216.614014
v 27.625946 509.516815 1217.582153
v 26.296478 509.516815 1586.563721
v -242.421967 509.516815 1585.595581
v -241.092499 509.516815 1216.614014
vt 0.578613 0.650357
vt 0.289307 0.650357
vt 0.289307 0.000000
vt 0.578613 0.000000
vt 1.000000 0.650357
vt 0.789307 0.650357
vt 0.789307 0.000000
vt 1.000000 0.000000
vt 0.000000 0.000000
vt 0.000000 0.650357
vt 0.210693 1.000000
vt 0.210693 0.650357
vt 0.421387 0.650357
vt 0.421387 1.000000
vt 0.000000 1.000000
vn 1.000000 0.000000 0.003600
vn -0.003600 0.000000 1.000000
vn -1.000000 0.000000 -0.003600
vn 0.003600 0.000000 -1.000000
vn 0.000000 -1.000000 -0.000000
vn 0.000000 1.000000 0.000000
s off
f 13/16/7 14/17/7 10/18/7 9/19/7
f 14/20/8 15/21/8 11/22/8 10/23/8
f 15/24/9 16/18/9 12/17/9 11/25/9
f 16/19/10 13/22/10 9/21/10 12/16/10
f 9/26/11 10/27/11 11/28/11 12/29/11
f 16/27/12 15/26/12 14/30/12 13/25/12
o Pyongyang_Building2.002_Cube.041
v -1997.801392 -221.941772 628.145142
v -1601.298828 -221.941772 623.905212
v -1598.211060 -221.941772 912.666382
v -1994.713623 -221.941772 916.906311
v -1997.801392 515.617493 628.145142
v -1601.298828 515.617493 623.905212
v -1598.211060 515.617493 912.666382
v -1994.713623 515.617493 916.906311
vt 0.578613 0.650357
vt 0.289307 0.650357
vt 0.289307 0.000000
vt 0.578613 0.000000
vt 1.000000 0.650357
vt 0.789307 0.650357
vt 0.789307 0.000000
vt 1.000000 0.000000
vt 0.000000 0.000000
vt 0.000000 0.650357
vt 0.210693 1.000000
vt 0.210693 0.650357
vt 0.421387 0.650357
vt 0.421387 1.000000
vt 0.000000 1.000000
vn -0.010700 0.000000 -0.999900
vn 0.999900 0.000000 -0.010700
vn 0.010700 0.000000 0.999900
vn -0.999900 0.000000 0.010700
vn 0.000000 -1.000000 0.000000
vn 0.000000 1.000000 0.000000
s off
f 21/31/13 22/32/13 18/33/13 17/34/13
f 22/35/14 23/36/14 19/37/14 18/38/14
f 23/39/15 24/33/15 20/32/15 19/40/15
f 24/34/16 21/37/16 17/36/16 20/31/16
f 17/41/17 18/42/17 19/43/17 20/44/17
f 24/42/18 23/41/18 22/45/18 21/40/18
o Pyongyang_Building2.003_Cube.049
v -768.545349 -16.811926 696.208862
v -449.488586 -16.811926 698.524475
v -451.174988 -16.811926 930.884094
v -770.231750 -16.811926 928.568481
v -768.545349 576.667358 696.208862
v -449.488586 576.667358 698.524475
v -451.174988 576.667358 930.884094
v -770.231750 576.667358 928.568481
vt 0.578613 0.650357
vt 0.289307 0.650357
vt 0.289307 0.000000
vt 0.578613 0.000000
vt 1.000000 0.650357
vt 0.789307 0.650357
vt 0.789307 0.000000
vt 1.000000 0.000000
vt 0.000000 0.000000
vt 0.000000 0.650357
vt 0.210693 1.000000
vt 0.210693 0.650357
vt 0.421387 0.650357
vt 0.421387 1.000000
vt 0.000000 1.000000
vn 0.007300 0.000000 -1.000000
vn 1.000000 0.000000 0.007300
vn -0.007300 0.000000 1.000000
vn -1.000000 0.000000 -0.007300
vn 0.000000 -1.000000 0.000000
vn 0.000000 1.000000 0.000000
s off
f 29/46/19 30/47/19 26/48/19 25/49/19
f 30/50/20 31/51/20 27/52/20 26/53/20
f 31/54/21 32/48/21 28/47/21 27/55/21
f 32/49/22 29/52/22 25/51/22 28/46/22
f 25/56/23 26/57/23 27/58/23 28/59/23
f 32/57/24 31/56/24 30/60/24 29/55/24
o Pyongyang_Building2.004_Cube.057
v 1800.156372 -16.811926 1215.608643
v 1794.369385 -16.811926 896.596008
v 2026.696899 -16.811926 892.381531
v 2032.483887 -16.811926 1211.394165
v 1800.156372 576.667358 1215.608643
v 1794.369385 576.667358 896.596008
v 2026.696899 576.667358 892.381531
v 2032.483887 576.667358 1211.394165
vt 0.578613 0.650357
vt 0.289307 0.650357
vt 0.289307 0.000000
vt 0.578613 0.000000
vt 1.000000 0.650357
vt 0.789307 0.650357
vt 0.789307 0.000000
vt 1.000000 0.000000
vt 0.000000 0.000000
vt 0.000000 0.650357
vt 0.210693 1.000000
vt 0.210693 0.650357
vt 0.421387 0.650357
vt 0.421387 1.000000
vt 0.000000 1.000000
vn -0.999800 0.000000 0.018100
vn -0.018100 0.000000 -0.999800
vn 0.999800 0.000000 -0.018100
vn 0.018100 0.000000 0.999800
vn 0.000000 -1.000000 -0.000000
vn 0.000000 1.000000 -0.000000
s off
f 37/61/25 38/62/25 34/63/25 33/64/25
f 38/65/26 39/66/26 35/67/26 34/68/26
f 39/69/27 40/63/27 36/62/27 35/70/27
f 40/64/28 37/67/28 33/66/28 36/61/28
f 33/71/29 34/72/29 35/73/29 36/74/29
f 40/72/30 39/71/30 38/75/30 37/70/30
