# Blender v2.73 (sub 0) OBJ File: 'Pyongyang.blend'
# www.blender.org
o Pyongyang_Building3_Cube.017
v 1609.021484 -32.621063 219.512512
v 1609.021484 -32.621063 -86.922913
v 1915.457031 -32.621063 -86.922913
v 1915.457031 -32.621063 219.512512
v 1609.021484 558.809814 219.512512
v 1609.021484 558.809814 -86.922913
v 1915.457031 558.809814 -86.922913
v 1915.457031 558.809814 219.512512
vt 0.000000 0.000000
vt 0.333333 0.000000
vt 0.333333 0.500000
vt 0.000000 0.500000
vt 0.666667 0.500000
vt 0.666667 0.000000
vt 1.000000 0.000000
vt 1.000000 0.500000
vt 0.333333 1.000000
vt 0.000000 1.000000
vt 0.666667 0.759063
vt 1.000000 0.759063
vt 0.333333 0.759063
vn -1.000000 0.000000 0.000000
vn 0.000000 0.000000 -1.000000
vn 1.000000 0.000000 0.000000
vn 0.000000 0.000000 1.000000
vn 0.000000 -1.000000 0.000000
vn 0.000000 1.000000 0.000000
s off
f 5/1/1 6/2/1 2/3/1 1/4/1
f 6/5/2 7/3/2 3/2/2 2/6/2
f 7/6/3 8/7/3 4/8/3 3/5/3
f 8/4/4 5/3/4 1/9/4 4/10/4
f 1/11/5 2/5/5 3/8/5 4/12/5
f 8/5/6 7/11/6 6/13/6 5/3/6
o Pyongyang_Building3.001_Cube.034
v 286.038818 -30.701263 1434.781738
v 286.038818 -30.701263 1170.074219
v 550.746338 -30.701263 1170.074219
v 550.746338 -30.701263 1434.781738
v 286.038818 480.193329 1434.781738
v 286.038818 480.193329 1170.074219
v 550.746338 480.193329 1170.074219
v 550.746338 480.193329 1434.781738
vt 0.000000 0.000000
vt 0.333333 0.000000
vt 0.333333 0.500000
vt 0.000000 0.500000
vt 0.666667 0.500000
vt 0.666667 0.000000
vt 1.000000 0.000000
vt 1.000000 0.500000
vt 0.333333 1.000000
vt 0.000000 1.000000
vt 0.666667 0.759063
vt 1.000000 0.759063
vt 0.333333 0.759063
vn -1.000000 0.000000 0.000000
vn 0.000000 0.000000 -1.000000
vn 1.000000 0.000000 0.000000
vn 0.000000 0.000000 1.000000
vn 0.000000 -1.000000 0.000000
vn 0.000000 1.000000 0.000000
s off
f 13/14/7 14/15/7 10/16/7 9/17/7
f 14/18/8 15/16/8 11/15/8 10/19/8
f 15/19/9 16/20/9 12/21/9 11/18/9
f 16/17/10 13/16/10 9/22/10 12/23/10
f 9/24/11 10/18/11 11/21/11 12/25/11
f 16/18/12 15/24/12 14/26/12 13/16/12
o Pyongyang_Building3.003_Cube.048
v 484.715881 -32.621063 480.667755
v 484.715881 -32.621063 174.232330
v 791.151306 -32.621063 174.232330
v 791.151306 -32.621063 480.667755
v 484.715881 558.809814 480.667755
v 484.715881 558.809814 174.232330
v 791.151306 558.809814 174.232330
v 791.151306 558.809814 480.667755
vt 0.000000 0.000000
vt 0.333333 0.000000
vt 0.333333 0.500000
vt 0.000000 0.500000
vt 0.666667 0.500000
vt 0.666667 0.000000
vt 1.000000 0.000000
vt 1.000000 0.500000
vt 0.333333 1.000000
vt 0.000000 1.000000
vt 0.666667 0.759063
vt 1.000000 0.759063
vt 0.333333 0.759063
vn -1.000000 0.000000 0.000000
vn 0.000000 0.000000 -1.000000
vn 1.000000 0.000000 0.000000
vn 0.000000 0.000000 1.000000
vn 0.000000 -1.000000 0.000000
vn 0.000000 1.000000 0.000000
s off
f 21/27/13 22/28/13 18/29/13 17/30/13
f 22/31/14 23/29/14 19/28/14 18/32/14
f 23/32/15 24/33/15 20/34/15 19/31/15
f 24/30/16 21/29/16 17/35/16 20/36/16
f 17/37/17 18/31/17 19/34/17 20/38/17
f 24/31/18 23/37/18 22/39/18 21/29/18
o Pyongyang_Building3.004_Cube.052
v 1269.583496 -32.621063 1445.898193
v 1269.583496 -32.621063 1139.462891
v 1576.019043 -32.621063 1139.462891
v 1576.019043 -32.621063 1445.898193
v 1269.583496 558.809814 1445.898193
v 1269.583496 558.809814 1139.462891
v 1576.019043 558.809814 1139.462891
v 1576.019043 558.809814 1445.898193
vt 0.000000 0.000000
vt 0.333333 0.000000
vt 0.333333 0.500000
vt 0.000000 0.500000
vt 0.666667 0.500000
vt 0.666667 0.000000
vt 1.000000 0.000000
vt 1.000000 0.500000
vt 0.333333 1.000000
vt 0.000000 1.000000
vt 0.666667 0.759063
vt 1.000000 0.759063
vt 0.333333 0.759063
vn -1.000000 0.000000 0.000000
vn 0.000000 0.000000 -1.000000
vn 1.000000 0.000000 0.000000
vn 0.000000 0.000000 1.000000
vn 0.000000 -1.000000 0.000000
vn 0.000000 1.000000 0.000000
s off
f 29/40/19 30/41/19 26/42/19 25/43/19
f 30/44/20 31/42/20 27/41/20 26/45/20
f 31/45/21 32/46/21 28/47/21 27/44/21
f 32/43/22 29/42/22 25/48/22 28/49/22
f 25/50/23 26/44/23 27/47/23 28/51/23
f 32/44/24 31/50/24 30/52/24 29/42/24
