# Blender v2.73 (sub 0) OBJ File: 'Pyongyang.blend'
# www.blender.org
o Skybox_Cube.031
v -19825.544922 -19560.947266 -19947.742188
v -19825.544922 19551.794922 -19947.746094
v 19287.197266 19551.794922 -19947.746094
v 19287.197266 -19560.947266 -19947.742188
v -19825.544922 -19560.943359 19165.000000
v -19825.544922 19551.798828 19164.996094
v 19287.197266 19551.798828 19164.996094
v 19287.197266 -19560.943359 19165.000000
vt 0.747169 0.334001
vt 0.995081 0.334001
vt 0.995081 0.666277
vt 0.747169 0.666277
vt 0.497187 0.998552
vt 0.254588 0.998552
vt 0.254587 0.666277
vt 0.497187 0.666277
vt 0.254587 0.334001
vt 0.497187 0.334001
vt 0.254587 0.001726
vt 0.497187 0.001726
vt 0.001353 0.334002
vt 0.001353 0.666277
vn 1.000000 0.000000 0.000000
vn 0.000000 -1.000000 0.000000
vn -1.000000 0.000000 0.000000
vn 0.000000 1.000000 -0.000000
vn 0.000000 0.000000 1.000000
vn 0.000000 -0.000000 -1.000000
s off
f 5/1/1 1/2/1 2/3/1 6/4/1
f 6/5/2 2/6/2 3/7/2 7/8/2
f 7/8/3 3/7/3 4/9/3 8/10/3
f 8/10/4 4/9/4 1/11/4 5/12/4
f 1/13/5 4/9/5 3/7/5 2/14/5
f 8/10/6 5/1/6 6/4/6 7/8/6
