# Blender v2.73 (sub 0) OBJ File: 'ForestTile3.blend'
# www.blender.org
o Wall_Cube
v -138.765472 -6.384007 123.393326
v -138.765472 -6.384007 -121.059402
v -118.765472 -6.384007 -121.059402
v -118.765472 -6.384007 123.393326
v -138.765472 74.074379 123.393326
v -138.765472 74.074379 -121.059402
v -118.765472 74.074379 -121.059402
v -118.765472 74.074379 123.393326
vt 0.364202 1.000000
vt 0.364202 0.000000
vt 0.728404 0.000000
vt 0.728404 1.000000
vt 1.000000 0.658274
vt 0.909468 0.658274
vt 0.909468 0.329137
vt 1.000000 0.329137
vt 0.000000 1.000000
vt 0.000000 0.000000
vt 0.909468 0.000000
vt 1.000000 0.000000
vt 0.818936 1.000000
vt 0.818936 0.000000
vt 0.909468 1.000000
vn -1.000000 0.000000 0.000000
vn 0.000000 0.000000 -1.000000
vn 1.000000 0.000000 0.000000
vn 0.000000 0.000000 1.000000
vn 0.000000 -1.000000 0.000000
vn 0.000000 1.000000 0.000000
s off
f 5/1/1 6/2/1 2/3/1 1/4/1
f 6/5/2 7/6/2 3/7/2 2/8/2
f 7/9/3 8/10/3 4/2/3 3/1/3
f 8/11/4 5/12/4 1/8/4 4/7/4
f 1/13/5 2/14/5 3/11/5 4/15/5
f 8/14/6 7/13/6 6/4/6 5/3/6
o Wall.001_Cube.002
v 121.228897 -6.384007 123.393326
v 121.228897 -6.384007 -121.059402
v 141.228897 -6.384007 -121.059402
v 141.228897 -6.384007 123.393326
v 121.228897 74.074379 123.393326
v 121.228897 74.074379 -121.059402
v 141.228897 74.074379 -121.059402
v 141.228897 74.074379 123.393326
vt 0.364202 1.000000
vt 0.364202 0.000000
vt 0.728404 0.000000
vt 0.728404 1.000000
vt 1.000000 0.658274
vt 0.909468 0.658274
vt 0.909468 0.329137
vt 1.000000 0.329137
vt 0.000000 1.000000
vt 0.000000 0.000000
vt 0.909468 0.000000
vt 1.000000 0.000000
vt 0.818936 1.000000
vt 0.818936 0.000000
vt 0.909468 1.000000
vn -1.000000 0.000000 0.000000
vn 0.000000 0.000000 -1.000000
vn 1.000000 0.000000 0.000000
vn 0.000000 0.000000 1.000000
vn 0.000000 -1.000000 0.000000
vn 0.000000 1.000000 0.000000
s off
f 13/16/7 14/17/7 10/18/7 9/19/7
f 14/20/8 15/21/8 11/22/8 10/23/8
f 15/24/9 16/25/9 12/17/9 11/16/9
f 16/26/10 13/27/10 9/23/10 12/22/10
f 9/28/11 10/29/11 11/26/11 12/30/11
f 16/29/12 15/28/12 14/19/12 13/18/12
