# Blender v2.73 (sub 0) OBJ File: 'Pyongyang.blend'
# www.blender.org
o Cube.001
v -2196.165039 -32.935493 -3047.401123
v -2196.165039 -32.935493 -3096.541748
v 2873.571533 -32.935493 -3096.541748
v 2873.571533 -32.935493 -3047.401123
v -2196.165039 1014.981079 -3047.401123
v -2196.165039 1014.981079 -3096.541748
v 2873.571533 1014.981079 -3096.541748
v 2873.571533 1014.981079 -3047.401123
vt 0.983655 0.000000
vt 1.000000 0.000000
vt 1.000000 0.281970
vt 0.983655 0.281970
vt 0.475482 1.000000
vt 0.475482 0.000000
vt 0.950964 0.000000
vt 0.950964 1.000000
vt 1.000000 0.563940
vt 0.983655 0.563940
vt 0.000000 1.000000
vt 0.000000 0.000000
vt 0.983655 1.000000
vt 0.967310 1.000000
vt 0.967309 0.000000
vn -1.000000 0.000000 0.000000
vn 0.000000 0.000000 -1.000000
vn 1.000000 0.000000 0.000000
vn 0.000000 0.000000 1.000000
vn 0.000000 -1.000000 0.000000
vn 0.000000 1.000000 0.000000
s off
f 5/1/1 6/2/1 2/3/1 1/4/1
f 6/5/2 7/6/2 3/7/2 2/8/2
f 7/9/3 8/10/3 4/4/3 3/3/3
f 8/6/4 5/5/4 1/11/4 4/12/4
f 1/13/5 2/14/5 3/15/5 4/1/5
f 8/7/6 7/15/6 6/14/6 5/8/6
